<?xml version="1.0" encoding="UTF-8"?> <svg xmlns="http://www.w3.org/2000/svg" xmlns:xlink="http://www.w3.org/1999/xlink" version="1.1" id="Capa_1" x="0px" y="0px" viewBox="0 0 193.68 75.45" style="enable-background:new 0 0 193.68 75.45;" xml:space="preserve"> <style type="text/css"> .st0{fill:#BD2E43;} .st1{fill:#891926;} </style> <g> <g> <path class="st0" d="M13.07,14.47l0.01-0.14l14.7,35.6l3.91-8.83L16.5,3.88c-0.29-0.9-0.83-1.36-1.61-1.36H9.24 c-0.44,0-0.84,0.15-1.21,0.44C7.88,3.09,7.76,3.24,7.67,3.39L13.07,14.47z"></path> <path class="st1" d="M1.62,56.4c0,1.08,0.56,1.61,1.69,1.61h3.81c1.07,0,1.61-0.54,1.61-1.61l4.17-39.88L7.41,5.17"></path> <path class="st0" d="M57.58,4.46l-5.43,11.9l3.93,38.99c0,1.08,0.56,1.61,1.69,1.61h3.81c1.08,0,1.61-0.54,1.61-1.61"></path> <path class="st1" d="M51.8,14.38L56.9,2.94c-0.28-0.27-0.64-0.41-1.12-0.41h-5.83c-0.34,0-0.65,0.12-0.92,0.35 c-0.27,0.23-0.46,0.57-0.59,1.01L32.4,42.77l-0.02-0.06l-3.87,8.93l0.67,1.62c0.42,0.9,0.89,1.36,1.43,1.36h3.56 c0.56,0,1.05-0.45,1.47-1.36l16.16-38.92L51.8,14.38z"></path> </g> <g> <path d="M77.7,9.64h0.9h28.64c0.61,0,1.06-0.17,1.34-0.51c0.28-0.34,0.42-0.74,0.42-1.21V4.29c0-1.17-0.56-1.76-1.69-1.76H72.21 c-1.08,0-1.61,0.56-1.61,1.69v5.42H77.7z"></path> <path d="M107.39,49.84H79.18v7.11h28.29c1.07,0,1.61-0.54,1.61-1.61v-3.78C109.08,50.42,108.52,49.84,107.39,49.84z"></path> <path d="M77.7,49.84L77.7,49.84V31.81h23.24c0.54,0,0.94-0.17,1.21-0.51c0.27-0.34,0.4-0.73,0.4-1.17v-3.74 c0-0.61-0.16-1.04-0.48-1.3c-0.32-0.26-0.7-0.38-1.14-0.38H77.7V11.13h-7.11v44.29c0,1.03,0.54,1.54,1.61,1.54h5.5V49.84z"></path> </g> <g> <path d="M128.67,11.13l-0.02,44.14c0,0.49,0.17,0.89,0.51,1.21c0.34,0.32,0.73,0.48,1.17,0.48h3.7c0.54,0,0.95-0.17,1.25-0.51 s0.44-0.73,0.44-1.17l0.02-44.14H128.67z"></path> <path d="M152.16,2.93c-0.35-0.27-0.75-0.4-1.19-0.4h-37.64c-0.49,0-0.89,0.15-1.21,0.44c-0.32,0.29-0.48,0.68-0.48,1.17v3.7 c0,0.61,0.16,1.06,0.48,1.36c0.32,0.29,0.72,0.44,1.21,0.44h14.84h0.48h7.07h0.42h14.83c0.61,0,1.06-0.18,1.36-0.53 c0.29-0.35,0.44-0.78,0.44-1.26v-3.7C152.72,3.6,152.51,3.2,152.16,2.93z"></path> </g> <g> <path d="M175.42,38.43l-18.58-0.02l9.3-23.26l-3.48-8.7l-20.04,48.23c-0.02,0.07-0.05,0.16-0.07,0.26 c-0.02,0.1-0.04,0.2-0.05,0.31c-0.01,0.11-0.02,0.25-0.02,0.42c0,0.86,0.56,1.28,1.69,1.28h3.89c0.49,0,0.89-0.12,1.21-0.37 c0.32-0.24,0.56-0.57,0.73-0.99c0.34-1.03,0.87-2.42,1.58-4.18c0.71-1.76,1.49-3.73,2.35-5.9l24.36,0.02L175.42,38.43z"></path> <path class="st1" d="M191.14,55.4c-0.02-0.11-0.05-0.23-0.07-0.35c-0.02-0.12-0.05-0.24-0.07-0.37l-20.96-50.8 c-0.05-0.12-0.11-0.26-0.18-0.42c-0.07-0.16-0.17-0.31-0.29-0.44c-0.12-0.13-0.3-0.25-0.53-0.35c-0.23-0.1-0.53-0.15-0.9-0.15 h-2.42c-0.39,0-0.7,0.05-0.93,0.15c-0.23,0.1-0.41,0.21-0.53,0.35c-0.12,0.13-0.22,0.28-0.29,0.44c-0.07,0.16-0.13,0.3-0.18,0.42 l-0.39,0.93l3.47,8.69l0.07-0.17l9.9,25.07h-0.02l3.98,9.98l2.89,7.21c0.17,0.42,0.42,0.75,0.73,0.99 c0.32,0.24,0.72,0.37,1.21,0.37h3.88c1.12,0,1.69-0.43,1.69-1.28C191.18,55.6,191.17,55.51,191.14,55.4z"></path> </g> </g> <g> <path d="M2.3,73.41V62.43h1.49v10.98H2.3z M3.3,69.14v-1.3h2.99c0.41,0,0.78-0.08,1.1-0.25s0.58-0.41,0.76-0.71 c0.18-0.31,0.28-0.67,0.28-1.09c0-0.42-0.09-0.79-0.28-1.09c-0.18-0.31-0.44-0.54-0.76-0.71c-0.32-0.17-0.69-0.25-1.1-0.25H3.3 v-1.3h3.07c0.68,0,1.28,0.14,1.82,0.41S9.15,63.5,9.46,64c0.31,0.5,0.47,1.09,0.47,1.78c0,0.68-0.16,1.27-0.47,1.77 c-0.31,0.51-0.74,0.9-1.27,1.17s-1.15,0.41-1.82,0.41H3.3z"></path> <path d="M18.06,73.41V62.43h1.49v10.98H18.06z M19.06,68.63v-1.25h2.98c0.64,0,1.14-0.16,1.48-0.49s0.51-0.77,0.51-1.33 c0-0.53-0.17-0.96-0.51-1.31c-0.34-0.35-0.83-0.52-1.46-0.52h-2.99v-1.3h3.04c0.7,0,1.3,0.13,1.82,0.4 c0.52,0.27,0.92,0.64,1.19,1.1c0.28,0.46,0.42,1,0.42,1.6c0,0.62-0.14,1.17-0.42,1.63c-0.28,0.46-0.68,0.83-1.19,1.08 c-0.52,0.26-1.12,0.39-1.82,0.39H19.06z M24.39,73.41l-3.99-4.92L21.81,68l4.46,5.41H24.39z"></path> <path d="M38.86,73.57c-0.78,0-1.51-0.15-2.18-0.44c-0.68-0.29-1.27-0.7-1.77-1.22c-0.51-0.52-0.9-1.13-1.19-1.81 c-0.28-0.69-0.43-1.42-0.43-2.2c0-0.79,0.14-1.53,0.43-2.21c0.29-0.68,0.68-1.28,1.18-1.8c0.5-0.52,1.09-0.92,1.76-1.2 c0.67-0.29,1.4-0.43,2.18-0.43c0.78,0,1.51,0.14,2.18,0.43c0.67,0.29,1.26,0.69,1.76,1.2c0.51,0.52,0.9,1.12,1.19,1.8 c0.28,0.69,0.43,1.42,0.43,2.22c0,0.78-0.14,1.51-0.43,2.2c-0.29,0.69-0.68,1.29-1.18,1.8c-0.5,0.52-1.09,0.92-1.76,1.21 S39.63,73.57,38.86,73.57z M38.83,72.15c0.78,0,1.47-0.18,2.07-0.55c0.6-0.36,1.07-0.87,1.42-1.5c0.34-0.64,0.51-1.37,0.51-2.19 c0-0.61-0.1-1.17-0.29-1.69s-0.47-0.96-0.83-1.34c-0.36-0.38-0.78-0.67-1.27-0.88c-0.49-0.21-1.02-0.31-1.61-0.31 c-0.78,0-1.47,0.18-2.07,0.54c-0.6,0.36-1.07,0.85-1.41,1.49c-0.34,0.63-0.51,1.36-0.51,2.18c0,0.61,0.1,1.18,0.29,1.7 s0.47,0.97,0.82,1.35c0.35,0.37,0.78,0.67,1.27,0.88C37.71,72.04,38.25,72.15,38.83,72.15z"></path> <path d="M52.75,73.41V62.43h1.49v10.98H52.75z M53.74,73.41v-1.36h3.05c0.8,0,1.51-0.18,2.13-0.53s1.1-0.84,1.44-1.46 c0.34-0.62,0.51-1.34,0.51-2.15c0-0.8-0.17-1.51-0.52-2.13c-0.35-0.62-0.83-1.1-1.44-1.46c-0.61-0.35-1.32-0.53-2.12-0.53h-3.04 v-1.36h3.07c0.8,0,1.54,0.14,2.22,0.41c0.68,0.27,1.27,0.66,1.77,1.16c0.5,0.5,0.89,1.08,1.17,1.74c0.28,0.66,0.42,1.39,0.42,2.18 c0,0.78-0.14,1.51-0.42,2.18c-0.28,0.67-0.67,1.25-1.16,1.75c-0.5,0.5-1.08,0.88-1.76,1.16s-1.42,0.41-2.21,0.41H53.74z"></path> <path d="M74.93,73.57c-0.81,0-1.54-0.18-2.18-0.55s-1.15-0.87-1.53-1.51s-0.56-1.36-0.56-2.16v-6.92h1.5v6.88 c0,0.58,0.12,1.08,0.36,1.5s0.57,0.75,0.99,0.98c0.42,0.23,0.89,0.35,1.42,0.35c0.53,0,0.99-0.12,1.4-0.35 c0.41-0.23,0.73-0.56,0.97-0.98s0.36-0.92,0.36-1.49v-6.9h1.5v6.93c0,0.8-0.18,1.52-0.55,2.15c-0.37,0.63-0.87,1.13-1.5,1.5 C76.46,73.39,75.74,73.57,74.93,73.57z"></path> <path d="M92.92,73.57c-0.79,0-1.52-0.15-2.2-0.44c-0.68-0.29-1.26-0.69-1.76-1.21c-0.5-0.52-0.89-1.12-1.16-1.8 s-0.41-1.42-0.41-2.2c0-0.79,0.14-1.53,0.41-2.22c0.27-0.69,0.66-1.28,1.16-1.8c0.5-0.51,1.08-0.91,1.76-1.2s1.4-0.44,2.18-0.44 c0.88,0,1.64,0.15,2.29,0.44c0.65,0.3,1.23,0.7,1.74,1.2l-1.03,1.03c-0.35-0.39-0.78-0.7-1.28-0.92c-0.51-0.22-1.08-0.33-1.73-0.33 c-0.57,0-1.1,0.1-1.58,0.31c-0.49,0.21-0.91,0.5-1.27,0.88c-0.36,0.38-0.64,0.83-0.83,1.35c-0.2,0.52-0.29,1.08-0.29,1.69 c0,0.61,0.1,1.18,0.29,1.69c0.2,0.52,0.47,0.97,0.83,1.35c0.36,0.38,0.78,0.67,1.27,0.88c0.49,0.21,1.02,0.31,1.6,0.31 c0.69,0,1.28-0.11,1.79-0.34c0.51-0.23,0.93-0.54,1.28-0.93l1.03,1.03c-0.51,0.52-1.1,0.92-1.78,1.22 C94.55,73.42,93.78,73.57,92.92,73.57z"></path> <path d="M109.7,73.57c-0.79,0-1.52-0.15-2.2-0.44c-0.67-0.29-1.26-0.69-1.76-1.21c-0.5-0.52-0.89-1.12-1.16-1.8 s-0.41-1.42-0.41-2.2c0-0.79,0.14-1.53,0.41-2.22c0.27-0.69,0.66-1.28,1.16-1.8c0.5-0.51,1.08-0.91,1.76-1.2 c0.68-0.29,1.4-0.44,2.18-0.44c0.88,0,1.64,0.15,2.29,0.44c0.65,0.3,1.23,0.7,1.74,1.2l-1.03,1.03c-0.35-0.39-0.78-0.7-1.28-0.92 c-0.51-0.22-1.08-0.33-1.72-0.33c-0.57,0-1.1,0.1-1.58,0.31c-0.49,0.21-0.91,0.5-1.27,0.88c-0.36,0.38-0.64,0.83-0.83,1.35 c-0.2,0.52-0.29,1.08-0.29,1.69c0,0.61,0.1,1.18,0.29,1.69c0.19,0.52,0.47,0.97,0.83,1.35c0.36,0.38,0.78,0.67,1.27,0.88 c0.49,0.21,1.02,0.31,1.6,0.31c0.69,0,1.28-0.11,1.79-0.34c0.51-0.23,0.93-0.54,1.28-0.93l1.03,1.03c-0.51,0.52-1.1,0.92-1.78,1.22 C111.32,73.42,110.55,73.57,109.7,73.57z"></path> <path d="M121.93,73.41V62.43h1.49v10.98H121.93z"></path> <path d="M137.35,73.57c-0.78,0-1.51-0.15-2.18-0.44c-0.68-0.29-1.27-0.7-1.77-1.22c-0.51-0.52-0.9-1.13-1.19-1.81 s-0.43-1.42-0.43-2.2c0-0.79,0.14-1.53,0.43-2.21s0.68-1.28,1.18-1.8c0.5-0.52,1.09-0.92,1.76-1.2s1.4-0.43,2.18-0.43 c0.78,0,1.51,0.14,2.18,0.43s1.26,0.69,1.76,1.2c0.51,0.52,0.9,1.12,1.19,1.8c0.29,0.69,0.43,1.42,0.43,2.22 c0,0.78-0.14,1.51-0.43,2.2s-0.68,1.29-1.18,1.8c-0.5,0.52-1.09,0.92-1.76,1.21C138.84,73.43,138.12,73.57,137.35,73.57z M137.32,72.15c0.78,0,1.47-0.18,2.07-0.55c0.6-0.36,1.07-0.87,1.42-1.5c0.34-0.64,0.51-1.37,0.51-2.19c0-0.61-0.1-1.17-0.29-1.69 s-0.47-0.96-0.83-1.34c-0.36-0.38-0.78-0.67-1.27-0.88c-0.49-0.21-1.02-0.31-1.61-0.31c-0.78,0-1.47,0.18-2.07,0.54 c-0.6,0.36-1.07,0.85-1.41,1.49c-0.34,0.63-0.51,1.36-0.51,2.18c0,0.61,0.1,1.18,0.29,1.7c0.19,0.52,0.47,0.97,0.82,1.35 c0.35,0.37,0.78,0.67,1.27,0.88C136.2,72.04,136.74,72.15,137.32,72.15z"></path> <path d="M151.24,73.41V62.43h1.04l0.44,1.74v9.24H151.24z M158.84,73.41l-6.74-8.99l0.19-1.99l6.76,8.99L158.84,73.41z M158.84,73.41l-0.44-1.63v-9.35h1.49v10.98H158.84z"></path> <path d="M168.81,73.41V62.43h1.49v10.98H168.81z M169.83,63.79v-1.36h6.22v1.36H169.83z M169.83,68.46v-1.31h5.78v1.31H169.83z M169.83,73.41v-1.36h6.3v1.36H169.83z"></path> <path d="M187.23,73.57c-0.85,0-1.59-0.16-2.2-0.47c-0.61-0.32-1.16-0.78-1.63-1.38l1.01-1.01c0.35,0.49,0.75,0.85,1.2,1.1 c0.45,0.25,1.01,0.37,1.68,0.37c0.65,0,1.18-0.14,1.57-0.43c0.4-0.28,0.59-0.67,0.59-1.17c0-0.41-0.1-0.74-0.29-1 s-0.45-0.46-0.77-0.63c-0.32-0.16-0.67-0.31-1.04-0.44s-0.76-0.27-1.14-0.42c-0.38-0.15-0.73-0.35-1.05-0.58 c-0.32-0.23-0.58-0.53-0.77-0.89c-0.19-0.36-0.29-0.83-0.29-1.4c0-0.62,0.15-1.15,0.45-1.59c0.3-0.44,0.71-0.78,1.23-1.01 s1.11-0.36,1.76-0.36c0.72,0,1.36,0.14,1.93,0.42c0.57,0.28,1.03,0.65,1.39,1.1l-1.01,1.01c-0.33-0.38-0.68-0.66-1.05-0.85 c-0.37-0.19-0.8-0.28-1.29-0.28c-0.59,0-1.06,0.13-1.41,0.39c-0.35,0.26-0.52,0.62-0.52,1.08c0,0.37,0.1,0.67,0.29,0.89 c0.2,0.23,0.45,0.42,0.77,0.58s0.67,0.3,1.05,0.44c0.38,0.13,0.77,0.28,1.15,0.43s0.73,0.36,1.04,0.6 c0.32,0.24,0.57,0.56,0.77,0.94c0.19,0.38,0.29,0.87,0.29,1.45c0,0.97-0.34,1.73-1.01,2.28C189.29,73.3,188.38,73.57,187.23,73.57z "></path> </g> </svg> 